<svg width="18" height="17" viewBox="0 0 18 17" fill="none" xmlns="http://www.w3.org/2000/svg">
<g id="local_shipping_FILL1_wght100_GRAD0_opsz24 1">
<path id="Vector" d="M4.03731 13.3059C3.54595 13.3059 3.12969 13.1343 2.78851 12.7912C2.44733 12.4481 2.27675 12.0314 2.27675 11.5412H1.42969V4.80003C1.42969 4.49415 1.52969 4.24121 1.72969 4.04121C1.92969 3.84121 2.18263 3.74121 2.48851 3.74121H11.665V6.2118H13.1473L15.6885 9.63533V11.5412H14.6297C14.6297 12.0314 14.4577 12.4481 14.1138 12.7912C13.7698 13.1343 13.3522 13.3059 12.8608 13.3059C12.3695 13.3059 11.9532 13.1343 11.612 12.7912C11.2709 12.4481 11.1003 12.0314 11.1003 11.5412H5.80616C5.80616 12.0353 5.63419 12.453 5.29025 12.7942C4.94629 13.1353 4.52865 13.3059 4.03731 13.3059ZM4.04145 12.8118C4.39439 12.8118 4.69439 12.6883 4.94145 12.4412C5.18851 12.1942 5.31204 11.8942 5.31204 11.5412C5.31204 11.1883 5.18851 10.8883 4.94145 10.6412C4.69439 10.3942 4.39439 10.2706 4.04145 10.2706C3.68851 10.2706 3.38851 10.3942 3.14145 10.6412C2.89439 10.8883 2.77086 11.1883 2.77086 11.5412C2.77086 11.8942 2.89439 12.1942 3.14145 12.4412C3.38851 12.6883 3.68851 12.8118 4.04145 12.8118ZM12.865 12.8118C13.2179 12.8118 13.5179 12.6883 13.765 12.4412C14.012 12.1942 14.1356 11.8942 14.1356 11.5412C14.1356 11.1883 14.012 10.8883 13.765 10.6412C13.5179 10.3942 13.2179 10.2706 12.865 10.2706C12.512 10.2706 12.212 10.3942 11.965 10.6412C11.7179 10.8883 11.5944 11.1883 11.5944 11.5412C11.5944 11.8942 11.7179 12.1942 11.965 12.4412C12.212 12.6883 12.512 12.8118 12.865 12.8118ZM11.665 9.63533H15.0885L12.865 6.70592H11.665V9.63533Z" fill="#FFF6EB"/>
</g>
</svg>
